<svg width="21" height="24" viewBox="0 0 21 24" fill="none" xmlns="http://www.w3.org/2000/svg">
<path d="M17.2904 23.0371C15.9981 24.3036 14.5872 24.1036 13.229 23.5037C11.7917 22.8904 10.473 22.8638 8.95657 23.5037C7.05772 24.3303 6.05555 24.0903 4.92152 23.0371C-1.51347 16.3313 -0.564047 6.11923 6.74125 5.74594C8.52142 5.83926 9.76095 6.73248 10.8027 6.81247C12.3587 6.49251 13.8487 5.57263 15.5102 5.69261C17.5014 5.85259 19.0047 6.65249 19.9936 8.09231C15.8795 10.5853 16.8553 16.0646 20.6266 17.5978C19.875 19.5975 18.8992 21.5839 17.2772 23.0504L17.2904 23.0371ZM10.6708 5.66595C10.473 2.69299 12.8598 0.23997 15.6025 0C15.985 3.43957 12.5169 5.99924 10.6708 5.66595Z" fill="#001640"/>
</svg>
