<svg width="24" height="25" viewBox="0 0 24 25" fill="none" xmlns="http://www.w3.org/2000/svg">
<path d="M17.8645 22.725L17.8645 22.725L17.8593 22.7219L13.379 20.0639C13.2905 20.0114 13.19 19.9826 13.0871 19.9801C12.6358 19.9694 12.1924 19.9373 11.7763 19.8749L11.7753 19.8748C11.6843 19.8613 11.6098 19.802 11.577 19.7167C11.5452 19.6342 11.5588 19.5539 11.6177 19.4852C12.4467 18.5184 12.8795 17.353 12.8795 16.1128C12.8795 13.035 10.1855 10.61 6.97235 10.61C5.76936 10.61 4.60502 10.941 3.61969 11.5878C3.54652 11.6332 3.46294 11.6396 3.38321 11.6047C3.30095 11.5636 3.25317 11.49 3.24466 11.4222C3.21282 11.1245 3.19253 10.8352 3.19253 10.54C3.19253 5.36786 7.69131 1.1 13.2963 1.1C18.9013 1.1 23.4 5.36786 23.4 10.54C23.4 13.3838 22.0848 16.0031 19.7458 17.8039C19.5773 17.9336 19.4901 18.1428 19.5165 18.3538L19.8958 21.3872C19.8959 21.3878 19.896 21.3885 19.8961 21.3891C19.958 21.9218 19.7265 22.4124 19.2835 22.7004C19.0642 22.8411 18.8079 22.9171 18.5588 22.9171C18.3166 22.9171 18.0789 22.8551 17.8645 22.725ZM12.7485 18.6251C12.652 18.818 12.6665 19.0477 12.7862 19.2269C12.906 19.4062 13.1128 19.5074 13.3278 19.492C13.341 19.4911 13.3668 19.4941 13.3993 19.5158C13.4079 19.5215 13.4167 19.527 13.4256 19.5323L18.1011 22.3095C18.2627 22.4097 18.445 22.4571 18.6309 22.4412C18.804 22.4263 18.9385 22.3604 19.0272 22.3028C19.22 22.1809 19.4831 21.89 19.4219 21.4401L18.9874 17.9215C18.9779 17.8215 19.0208 17.7336 19.0875 17.6835C21.5139 15.9809 22.9241 13.3695 22.9241 10.5176C22.9241 5.53182 18.5671 1.55283 13.2963 1.55283C8.22361 1.55283 3.99472 5.24713 3.68097 9.97538C3.6674 10.1798 3.7591 10.3771 3.92417 10.4985C4.08923 10.6199 4.30483 10.6486 4.49595 10.5748C5.26747 10.2766 6.09929 10.1125 6.96118 10.1125C10.5187 10.1125 13.3443 12.8254 13.3443 16.0904H13.3443L13.3444 16.0972C13.3544 16.9783 13.1444 17.8337 12.7485 18.6251Z" stroke="#001640" stroke-width="1.2" stroke-linejoin="round"/>
<path d="M3.2103 23.7517L3.20756 23.7499C2.8953 23.5488 2.7352 23.2126 2.77446 22.852L2.99721 21.1375C3.02398 20.9315 2.94223 20.7262 2.78111 20.595C1.40648 19.4755 0.6 17.8231 0.6 16.1017C0.6 14.138 1.62723 12.2922 3.37265 11.1801L3.37266 11.1801L3.37731 11.1771C4.42861 10.4935 5.67764 10.1238 6.98314 10.1238C10.5407 10.1238 13.3663 12.8367 13.3663 16.1017C13.3663 17.4308 12.8823 18.7449 11.9907 19.7881L11.9906 19.7881L11.984 19.7961C10.8381 21.1847 9.11573 22.0069 7.19844 22.0687C7.09721 22.072 6.99845 22.1008 6.91136 22.1526L4.18642 23.7712C4.18621 23.7713 4.18599 23.7714 4.18578 23.7716C4.03745 23.859 3.87583 23.9 3.70945 23.9C3.53188 23.9 3.36698 23.8538 3.2103 23.7517ZM4.18341 23.2067L6.85125 21.6223C6.90924 21.5888 6.95072 21.5821 6.97197 21.5821C8.77883 21.5821 10.5057 20.8096 11.6113 19.4681C12.4331 18.4959 12.8792 17.334 12.8792 16.0905C12.8792 13.023 10.1842 10.599 6.97197 10.599C5.76823 10.599 4.60315 10.9303 3.6174 11.578C2.02872 12.5966 1.06479 14.2765 1.06479 16.1017C1.06479 17.859 1.92799 19.4586 3.4242 20.4818C3.49461 20.5314 3.53566 20.6148 3.52673 20.7125L3.28195 22.6142C3.25265 22.8418 3.35574 23.0661 3.5475 23.1922C3.73926 23.3182 3.98611 23.3238 4.18341 23.2067Z" stroke="#001640" stroke-width="1.2" stroke-linejoin="round"/>
<path d="M9 8H18" stroke="#001640" stroke-width="1.2" stroke-linecap="round"/>
<path d="M12 12.5L18 12.5" stroke="#001640" stroke-width="1.2" stroke-linecap="round"/>
<path d="M4.5 14.75H9" stroke="#001640" stroke-width="1.2" stroke-linecap="round"/>
<path d="M6 17.75H9" stroke="#001640" stroke-width="1.2" stroke-linecap="round"/>
</svg>
