<svg width="24" height="24" viewBox="0 0 24 24" fill="none" xmlns="http://www.w3.org/2000/svg">
<path d="M1.87516 6.612C2.8515 4.62389 4.34927 2.95261 6.20107 1.78496C8.05288 0.617312 10.1857 -0.000700282 12.3613 5.95478e-07C15.5238 5.95478e-07 18.1805 1.1892 20.2118 3.126L16.8475 6.5676C15.6306 5.3784 14.0839 4.7724 12.3613 4.7724C9.30439 4.7724 6.71689 6.8844 5.79572 9.72C5.56103 10.44 5.42725 11.208 5.42725 12C5.42725 12.792 5.56103 13.56 5.79572 14.28C6.71807 17.1168 9.30439 19.2276 12.3613 19.2276C13.9396 19.2276 15.2832 18.8016 16.3346 18.0816C16.9442 17.6712 17.466 17.1387 17.8686 16.5162C18.2712 15.8937 18.5462 15.1942 18.6769 14.46H12.3613V9.8184H23.413C23.5515 10.6032 23.6266 11.4216 23.6266 12.2724C23.6266 15.9276 22.3475 19.0044 20.1273 21.0924C18.1864 22.926 15.5296 24 12.3613 24C10.8201 24.0006 9.29388 23.6907 7.86988 23.0878C6.44588 22.485 5.15201 21.6011 4.06222 20.4867C2.97243 19.3723 2.10809 18.0491 1.51858 16.5929C0.929077 15.1368 0.625971 13.576 0.626588 12C0.626588 10.0632 1.07955 8.232 1.87516 6.612Z" fill="#001640"/>
</svg>
